HIERARCHY
ROOT Bone
{
	OFFSET 0.000000 0.000000 0.000000
	CHANNELS 6 Xposition Yposition Zposition Xrotation Yrotation Zrotation
	JOINT Bone.001
	{
		OFFSET 0.000000 0.000000 0.113410
		CHANNELS 3 Xrotation Yrotation Zrotation
		JOINT Bone.002
		{
			OFFSET 0.009195 0.000000 0.098084
			CHANNELS 3 Xrotation Yrotation Zrotation
			JOINT Bone.003
			{
				OFFSET 0.015326 0.000000 0.098084
				CHANNELS 3 Xrotation Yrotation Zrotation
				JOINT Bone.004
				{
					OFFSET 0.012261 0.000000 0.098084
					CHANNELS 3 Xrotation Yrotation Zrotation
					JOINT Bone.005
					{
						OFFSET 0.012261 0.000000 0.098084
						CHANNELS 3 Xrotation Yrotation Zrotation
						JOINT Bone.006
						{
							OFFSET 0.006130 0.000000 0.098084
							CHANNELS 3 Xrotation Yrotation Zrotation
							JOINT Bone.007
							{
								OFFSET 0.006130 0.000000 0.098084
								CHANNELS 3 Xrotation Yrotation Zrotation
								End Site
								{
									OFFSET 0.009195 0.000000 0.098084
								}
							}
						}
					}
				}
			}
		}
	}
}
MOTION
Frames: 44
Frame Time: 0.041667
0.000000 0.000000 0.000000 0.000000 0.000000 0.000000 0.000000 5.355825 0.000000 0.000000 3.524834 0.000000 0.000000 -1.755643 0.000000 0.000000 0.000000 0.000000 0.000000 -3.548682 0.000000 0.000000 0.000000 0.000000 0.000000 1.779491 0.000000 
0.000000 0.000000 0.000000 0.000000 0.000000 0.000000 0.000000 5.355825 0.000000 0.000000 3.524834 0.000000 0.000000 -1.755643 0.000000 0.000000 0.000000 0.000000 0.000000 -3.548682 0.000000 0.000000 0.000000 0.000000 0.000000 1.779491 0.000000 
0.000000 0.000000 0.000000 0.000000 0.000000 0.000000 0.000000 7.125016 0.000000 0.000000 0.000000 0.000000 0.000000 1.755643 0.000000 0.000000 -1.755643 0.000000 0.000000 -1.769191 0.000000 0.000000 -1.779491 0.000000 0.000000 1.779491 0.000000 
0.000000 0.000000 0.000000 0.000000 0.000000 0.000000 0.000000 7.125016 0.000000 0.000000 0.000000 0.000000 0.000000 1.755643 0.000000 0.000000 -1.755643 0.000000 0.000000 0.000000 0.000000 0.000000 -3.548682 0.000000 0.000000 1.779491 0.000000 
0.000000 0.000000 0.000000 0.000000 0.000000 0.000000 0.000000 7.125016 0.000000 0.000000 0.000000 0.000000 0.000000 1.755643 0.000000 0.000000 -1.755643 0.000000 0.000000 0.000000 0.000000 0.000000 -3.548682 0.000000 0.000000 3.548682 0.000000 
0.000000 0.000000 0.000000 0.000000 0.000000 0.000000 0.000000 7.125016 0.000000 0.000000 0.000000 0.000000 0.000000 1.755643 0.000000 0.000000 -1.755643 0.000000 0.000000 0.000000 0.000000 0.000000 -3.548682 0.000000 0.000000 3.548682 0.000000 
0.000000 0.000000 0.000000 0.000000 0.000000 0.000000 0.000000 7.125016 0.000000 0.000000 0.000000 0.000000 0.000000 1.755643 0.000000 0.000000 -1.755643 0.000000 0.000000 0.000000 0.000000 0.000000 -3.548682 0.000000 0.000000 3.548682 0.000000 
0.000000 0.000000 0.000000 0.000000 0.000000 0.000000 0.000000 7.125016 0.000000 0.000000 0.000000 0.000000 0.000000 1.755643 0.000000 0.000000 -1.755643 0.000000 0.000000 0.000000 0.000000 0.000000 -1.769191 0.000000 0.000000 0.000000 0.000000 
0.000000 0.000000 0.000000 0.000000 1.591140 0.000000 0.000000 3.764685 0.000000 0.000000 1.769191 0.000000 0.000000 3.494639 0.000000 0.000000 -3.494639 0.000000 0.000000 -1.769191 0.000000 0.000000 0.000000 0.000000 0.000000 0.000000 0.000000 
0.000000 0.000000 0.000000 0.000000 1.789911 0.000000 0.000000 3.404518 0.000000 0.000000 1.716798 0.000000 0.000000 1.704421 0.000000 0.000000 -1.704421 0.000000 0.000000 0.000000 0.000000 0.000000 -1.716798 0.000000 0.000000 0.000000 0.000000 
0.000000 0.000000 0.000000 0.000000 1.789911 0.000000 0.000000 3.404518 0.000000 0.000000 1.716798 0.000000 0.000000 1.704421 0.000000 0.000000 -1.704421 0.000000 0.000000 0.000000 0.000000 0.000000 -1.716798 0.000000 0.000000 0.000000 0.000000 
0.000000 0.000000 0.000000 0.000000 0.000000 0.000000 0.000000 5.355825 0.000000 0.000000 1.769191 0.000000 0.000000 1.755643 0.000000 0.000000 -1.755643 0.000000 0.000000 0.000000 0.000000 0.000000 -1.769191 0.000000 0.000000 -1.779491 0.000000 
0.000000 0.000000 0.000000 0.000000 -1.684684 0.000000 0.000000 8.595911 0.000000 0.000000 0.000000 0.000000 0.000000 1.704421 0.000000 0.000000 -1.704421 0.000000 0.000000 -1.716798 0.000000 0.000000 0.000000 0.000000 0.000000 -1.726200 0.000000 
0.000000 0.000000 0.000000 0.000000 -1.684684 0.000000 0.000000 8.595911 0.000000 0.000000 0.000000 0.000000 0.000000 1.704421 0.000000 0.000000 -1.704421 0.000000 0.000000 -1.716798 0.000000 0.000000 0.000000 0.000000 0.000000 -1.726200 0.000000 
0.000000 0.000000 0.000000 0.000000 -1.507436 0.000000 0.000000 8.632452 0.000000 0.000000 0.000000 0.000000 0.000000 1.755643 0.000000 0.000000 -5.304325 0.000000 0.000000 1.779491 0.000000 0.000000 0.000000 0.000000 0.000000 -1.779491 0.000000 
0.000000 0.000000 0.000000 0.000000 -1.507436 0.000000 0.000000 8.632452 0.000000 0.000000 0.000000 0.000000 0.000000 1.755643 0.000000 0.000000 -5.304325 0.000000 0.000000 1.779491 0.000000 0.000000 0.000000 0.000000 0.000000 -1.779491 0.000000 
0.000000 0.000000 0.000000 0.000000 -1.636577 0.000000 0.000000 8.547804 0.000000 0.000000 0.000000 0.000000 0.000000 0.000000 0.000000 0.000000 0.000000 0.000000 0.000000 -1.716798 0.000000 0.000000 -1.726200 0.000000 0.000000 0.000000 0.000000 
0.000000 0.000000 0.000000 0.000000 -1.636577 0.000000 0.000000 8.547804 0.000000 0.000000 0.000000 0.000000 0.000000 0.000000 0.000000 0.000000 0.000000 0.000000 0.000000 -1.716798 0.000000 0.000000 -1.726200 0.000000 0.000000 0.000000 0.000000 
0.000000 0.000000 0.000000 0.000000 -1.735705 0.000000 0.000000 6.778156 0.000000 0.000000 1.667386 0.000000 0.000000 1.656049 0.000000 0.000000 -1.656049 0.000000 0.000000 0.000000 0.000000 0.000000 -1.667386 0.000000 0.000000 0.000000 0.000000 
0.000000 0.000000 0.000000 0.000000 -3.012788 0.000000 0.000000 9.924015 0.000000 0.000000 0.000000 0.000000 0.000000 0.000000 0.000000 0.000000 1.704421 0.000000 0.000000 -1.704421 0.000000 0.000000 0.000000 0.000000 0.000000 -1.716798 0.000000 
0.000000 0.000000 0.000000 0.000000 -3.012788 0.000000 0.000000 8.207216 0.000000 0.000000 3.421219 0.000000 0.000000 -1.704421 0.000000 0.000000 0.000000 0.000000 0.000000 0.000000 0.000000 0.000000 0.000000 0.000000 0.000000 0.000000 0.000000 
0.000000 0.000000 0.000000 0.000000 0.000000 0.000000 0.000000 5.194429 0.000000 0.000000 0.000000 0.000000 0.000000 1.716798 0.000000 0.000000 -1.716798 0.000000 0.000000 0.000000 0.000000 0.000000 1.716798 0.000000 0.000000 0.000000 0.000000 
0.000000 0.000000 0.000000 0.000000 1.684684 0.000000 0.000000 1.783545 0.000000 0.000000 5.147419 0.000000 0.000000 -3.421219 0.000000 0.000000 -1.726200 0.000000 0.000000 0.000000 0.000000 0.000000 1.726200 0.000000 0.000000 -3.458724 0.000000 
0.000000 0.000000 0.000000 0.000000 3.576334 0.000000 0.000000 1.779491 0.000000 0.000000 3.524834 0.000000 0.000000 -3.524834 0.000000 0.000000 -1.779491 0.000000 0.000000 0.000000 0.000000 0.000000 0.000000 0.000000 0.000000 -1.786424 0.000000 
0.000000 0.000000 0.000000 0.000000 5.906141 0.000000 0.000000 0.209362 0.000000 0.000000 4.009168 0.000000 0.000000 0.000000 0.000000 0.000000 -6.039055 0.000000 0.000000 0.000000 0.000000 0.000000 0.000000 0.000000 0.000000 -4.085617 0.000000 
0.000000 0.000000 0.000000 0.000000 6.581945 0.000000 0.000000 -1.818303 0.000000 0.000000 7.004647 0.000000 0.000000 2.267955 0.000000 0.000000 -6.911227 0.000000 0.000000 -2.361375 0.000000 0.000000 2.361375 0.000000 0.000000 -4.739072 0.000000 
0.000000 0.000000 0.000000 0.000000 9.462322 0.000000 0.000000 0.000000 0.000000 0.000000 2.305967 0.000000 0.000000 0.000000 0.000000 0.000000 -4.643273 0.000000 0.000000 -2.361375 0.000000 0.000000 0.000000 0.000000 0.000000 -2.377698 0.000000 
0.000000 0.000000 0.000000 0.000000 16.504361 0.000000 0.000000 0.423152 0.000000 0.000000 0.000000 0.000000 0.000000 -4.662739 0.000000 0.000000 -7.295033 0.000000 0.000000 0.000000 0.000000 0.000000 -2.480188 0.000000 0.000000 -2.489553 0.000000 
0.000000 0.000000 0.000000 0.000000 25.559965 0.000000 0.000000 2.086010 0.000000 0.000000 -9.211027 0.000000 0.000000 -2.489553 0.000000 0.000000 0.000000 0.000000 0.000000 -10.505064 0.000000 0.000000 2.689770 0.000000 0.000000 -5.403791 0.000000 
0.000000 0.000000 0.000000 0.000000 29.744881 0.000000 0.000000 -4.281536 0.000000 0.000000 -4.608887 0.000000 0.000000 0.000000 0.000000 0.000000 -2.419509 0.000000 0.000000 0.000000 0.000000 0.000000 -10.304846 0.000000 0.000000 2.654196 0.000000 
0.000000 0.000000 0.000000 0.000000 19.179008 0.000000 0.000000 4.319558 0.000000 0.000000 -2.127943 0.000000 0.000000 0.000000 0.000000 0.000000 0.000000 0.000000 0.000000 -2.191614 0.000000 0.000000 -6.914234 0.000000 0.000000 -2.398967 0.000000 
0.000000 0.000000 0.000000 0.000000 6.581945 0.000000 0.000000 9.678260 0.000000 0.000000 4.295841 0.000000 0.000000 0.000000 0.000000 0.000000 -2.121096 0.000000 0.000000 2.121096 0.000000 0.000000 -4.295841 0.000000 0.000000 -4.491916 0.000000 
0.000000 0.000000 0.000000 0.000000 -1.847610 0.000000 0.000000 15.418045 0.000000 0.000000 -1.881065 0.000000 0.000000 5.552090 0.000000 0.000000 0.000000 0.000000 0.000000 -1.819298 0.000000 0.000000 -1.851727 0.000000 0.000000 -3.788027 0.000000 
0.000000 0.000000 0.000000 0.000000 -5.194429 0.000000 0.000000 14.356776 0.000000 0.000000 0.000000 0.000000 0.000000 1.791716 0.000000 0.000000 1.770293 0.000000 0.000000 -1.770293 0.000000 0.000000 -3.601683 0.000000 0.000000 0.000000 0.000000 
0.000000 0.000000 0.000000 0.000000 -6.709837 0.000000 0.000000 14.304480 0.000000 0.000000 0.000000 0.000000 0.000000 0.000000 0.000000 0.000000 1.867679 0.000000 0.000000 -7.553170 0.000000 0.000000 0.000000 0.000000 0.000000 3.801441 0.000000 
0.000000 0.000000 0.000000 0.000000 -5.527540 0.000000 0.000000 13.954509 0.000000 0.000000 -2.086777 0.000000 0.000000 0.000000 0.000000 0.000000 2.086777 0.000000 0.000000 -8.426969 0.000000 0.000000 0.000000 0.000000 0.000000 2.121096 0.000000 
0.000000 0.000000 0.000000 0.000000 0.000000 0.000000 0.000000 6.115504 0.000000 0.000000 0.000000 0.000000 0.000000 2.014599 0.000000 0.000000 -2.014599 0.000000 0.000000 -6.115504 0.000000 0.000000 2.045408 0.000000 0.000000 -2.045408 0.000000 
0.000000 0.000000 0.000000 0.000000 3.945186 0.000000 0.000000 3.908127 0.000000 0.000000 0.000000 0.000000 0.000000 1.929094 0.000000 0.000000 -3.876266 0.000000 0.000000 -3.931207 0.000000 0.000000 0.000000 0.000000 0.000000 -1.974934 0.000000 
0.000000 0.000000 0.000000 0.000000 9.782407 0.000000 0.000000 0.000000 0.000000 0.000000 0.000000 0.000000 0.000000 0.000000 0.000000 0.000000 0.000000 0.000000 0.000000 -5.837221 0.000000 0.000000 -1.970252 0.000000 0.000000 0.000000 0.000000 
0.000000 0.000000 0.000000 0.000000 14.036243 0.000000 0.000000 -0.465809 0.000000 0.000000 -3.788027 0.000000 0.000000 1.906962 0.000000 0.000000 0.000000 0.000000 0.000000 -5.783228 0.000000 0.000000 -1.960955 0.000000 0.000000 -1.970252 0.000000 
0.000000 0.000000 0.000000 0.000000 16.858399 0.000000 0.000000 -2.822155 0.000000 0.000000 0.000000 0.000000 0.000000 -1.941486 0.000000 0.000000 0.000000 0.000000 0.000000 -1.970085 0.000000 0.000000 -4.009168 0.000000 0.000000 -2.029887 0.000000 
0.000000 0.000000 0.000000 0.000000 16.858399 0.000000 0.000000 -2.822155 0.000000 0.000000 0.000000 0.000000 0.000000 -1.941486 0.000000 0.000000 0.000000 0.000000 0.000000 -1.970085 0.000000 0.000000 -4.009168 0.000000 0.000000 -2.029887 0.000000 
0.000000 0.000000 0.000000 0.000000 14.470294 0.000000 0.000000 0.951867 0.000000 0.000000 0.000000 0.000000 0.000000 0.000000 0.000000 0.000000 0.000000 0.000000 0.000000 -1.851727 0.000000 0.000000 -3.788027 0.000000 0.000000 -3.876266 0.000000 
0.000000 0.000000 0.000000 0.000000 12.094757 0.000000 0.000000 -0.405388 0.000000 0.000000 3.732792 0.000000 0.000000 1.819298 0.000000 0.000000 0.000000 0.000000 0.000000 0.000000 0.000000 0.000000 -7.459052 0.000000 0.000000 -3.876266 0.000000 
